# xmcd
#
# Track frame offsets: 
#        150
#        17397
#        32870
#        46765
#        65727
#        77979
#        91095
#        103512
#        120147
#        139362
#        154820
#        170742
#        185597
#        203515
#        220892
#
# Disc length: 3203 seconds
#
# Revision: 2
# Processed by: cddbd v1.5.2PL0 Copyright (c) Steve Scherf et al.
# Submitted via: ExactAudioCopyFreeDBPlugin 1.0
#
DISCID=c50c810f
DTITLE=Johnny Cash - Christmas Album
DYEAR=1996
DGENRE=Weihnachten
TTITLE0=White Christmas
TTITLE1=Silent Night
TTITLE2=Blue Christmas
TTITLE3=The First Noel
TTITLE4=Joy To The World
TTITLE5=Figgy Puddin'
TTITLE6=Here Was A Man
TTITLE7=O Little Town Of Bethlehem
TTITLE8=What Child Is This?
TTITLE9=Away In A Manger
TTITLE10=Oh Christmas Tree
TTITLE11=O Come All Ye Faithful
TTITLE12=It Came Upon A Midnight Clear
TTITLE13=Hark! The Herald Angels Sing
TTITLE14=I'll Be Home For Christmas
EXTD=
EXTT0=
EXTT1=
EXTT2=
EXTT3=
EXTT4=
EXTT5=
EXTT6=
EXTT7=
EXTT8=
EXTT9=
EXTT10=
EXTT11=
EXTT12=
EXTT13=
EXTT14=
PLAYORDER=
